<svg width="19" height="28" viewBox="0 0 19 28" fill="none" xmlns="http://www.w3.org/2000/svg">
<circle cx="3" cy="3" r="3" fill="#352CAB"/>
<rect x="13" y="3" width="6" height="6" fill="#352CAB"/>
<rect y="17" width="6" height="11" fill="#FBBC05"/>
<path d="M5.4375 4V13H3.74414V4H5.4375ZM8.61328 6.66016V13H6.91992V6.66016H8.61328ZM6.81445 5.00781C6.81445 4.76172 6.90039 4.55859 7.07227 4.39844C7.24414 4.23828 7.47461 4.1582 7.76367 4.1582C8.04883 4.1582 8.27734 4.23828 8.44922 4.39844C8.625 4.55859 8.71289 4.76172 8.71289 5.00781C8.71289 5.25391 8.625 5.45703 8.44922 5.61719C8.27734 5.77734 8.04883 5.85742 7.76367 5.85742C7.47461 5.85742 7.24414 5.77734 7.07227 5.61719C6.90039 5.45703 6.81445 5.25391 6.81445 5.00781ZM11.6602 8.01367V13H9.97266V6.66016H11.5547L11.6602 8.01367ZM11.4141 9.60742H10.957C10.957 9.13867 11.0176 8.7168 11.1387 8.3418C11.2598 7.96289 11.4297 7.64062 11.6484 7.375C11.8672 7.10547 12.127 6.90039 12.4277 6.75977C12.7324 6.61523 13.0723 6.54297 13.4473 6.54297C13.7441 6.54297 14.0156 6.58594 14.2617 6.67188C14.5078 6.75781 14.7188 6.89453 14.8945 7.08203C15.0742 7.26953 15.2109 7.51758 15.3047 7.82617C15.4023 8.13477 15.4512 8.51172 15.4512 8.95703V13H13.752V8.95117C13.752 8.66992 13.7129 8.45117 13.6348 8.29492C13.5566 8.13867 13.4414 8.0293 13.2891 7.9668C13.1406 7.90039 12.957 7.86719 12.7383 7.86719C12.5117 7.86719 12.3145 7.91211 12.1465 8.00195C11.9824 8.0918 11.8457 8.2168 11.7363 8.37695C11.6309 8.5332 11.5508 8.7168 11.4961 8.92773C11.4414 9.13867 11.4141 9.36523 11.4141 9.60742Z" fill="#FFBD59"/>
<path d="M6.27539 19.7988C6.48242 19.7988 6.66602 19.7598 6.82617 19.6816C6.98633 19.5996 7.11133 19.4863 7.20117 19.3418C7.29492 19.1934 7.34375 19.0195 7.34766 18.8203H8.93555C8.93164 19.2656 8.8125 19.6621 8.57812 20.0098C8.34375 20.3535 8.0293 20.625 7.63477 20.8242C7.24023 21.0195 6.79883 21.1172 6.31055 21.1172C5.81836 21.1172 5.38867 21.0352 5.02148 20.8711C4.6582 20.707 4.35547 20.4805 4.11328 20.1914C3.87109 19.8984 3.68945 19.5586 3.56836 19.1719C3.44727 18.7812 3.38672 18.3633 3.38672 17.918V17.748C3.38672 17.2988 3.44727 16.8809 3.56836 16.4941C3.68945 16.1035 3.87109 15.7637 4.11328 15.4746C4.35547 15.1816 4.6582 14.9531 5.02148 14.7891C5.38477 14.625 5.81055 14.543 6.29883 14.543C6.81836 14.543 7.27344 14.6426 7.66406 14.8418C8.05859 15.041 8.36719 15.3262 8.58984 15.6973C8.81641 16.0645 8.93164 16.5 8.93555 17.0039H7.34766C7.34375 16.793 7.29883 16.6016 7.21289 16.4297C7.13086 16.2578 7.00977 16.1211 6.84961 16.0195C6.69336 15.9141 6.5 15.8613 6.26953 15.8613C6.02344 15.8613 5.82227 15.9141 5.66602 16.0195C5.50977 16.1211 5.38867 16.2617 5.30273 16.4414C5.2168 16.6172 5.15625 16.8184 5.12109 17.0449C5.08984 17.2676 5.07422 17.502 5.07422 17.748V17.918C5.07422 18.1641 5.08984 18.4004 5.12109 18.627C5.15234 18.8535 5.21094 19.0547 5.29688 19.2305C5.38672 19.4062 5.50977 19.5449 5.66602 19.6465C5.82227 19.748 6.02539 19.7988 6.27539 19.7988ZM13.6641 19.4824V14.6602H15.3516V21H13.7637L13.6641 19.4824ZM13.8516 18.1816L14.3496 18.1699C14.3496 18.5918 14.3008 18.9844 14.2031 19.3477C14.1055 19.707 13.959 20.0195 13.7637 20.2852C13.5684 20.5469 13.3223 20.752 13.0254 20.9004C12.7285 21.0449 12.3789 21.1172 11.9766 21.1172C11.668 21.1172 11.3828 21.0742 11.1211 20.9883C10.8633 20.8984 10.6406 20.7598 10.4531 20.5723C10.2695 20.3809 10.125 20.1367 10.0195 19.8398C9.91797 19.5391 9.86719 19.1777 9.86719 18.7559V14.6602H11.5547V18.7676C11.5547 18.9551 11.5762 19.1133 11.6191 19.2422C11.666 19.3711 11.7305 19.4766 11.8125 19.5586C11.8945 19.6406 11.9902 19.6992 12.0996 19.7344C12.2129 19.7695 12.3379 19.7871 12.4746 19.7871C12.8223 19.7871 13.0957 19.7168 13.2949 19.5762C13.498 19.4355 13.6406 19.2441 13.7227 19.002C13.8086 18.7559 13.8516 18.4824 13.8516 18.1816Z" fill="#352CAB"/>
</svg>
